<svg xmlns="http://www.w3.org/2000/svg" width="512" height="512" viewBox="0 0 135.467 135.467"><g style="display:inline"><path d="M111.76 123.224c-14.065-12.896-22.293-32.12-18.876-45.93 3.172-12.82 15.4-17.031 29.44-11.508 3.24 1.274 6.576 3.067 9.92 5.392a60 60 0 0 1 5.607 4.422c1.769-13.038 1.458-26.006-2.68-31.722-.337-.467-.8-.779-1.374-.958-5.549-1.732-21.363 8.913-32.663 11.28-9.77-.37-21.945-6.265-27.823-5.65-1.341.14-2.353.62-2.928 1.582-6.626 11.08-2.36 44.364 3.97 56.505 3.92 7.52 14.846 17.012 25.958 23.835a113 113 0 0 0 11.45-7.248" style="font-variation-settings:&quot;wght&quot;400;display:inline;fill:#b3b3b3;fill-opacity:1;fill-rule:evenodd;stroke-width:3.08126;stroke-dasharray:9.24375,3.08126;stroke-dashoffset:277.312" transform="rotate(-13.434 24.705 260.84)"/><path d="M152.39 42.067c-4.435-1.773-13.998.959-23.224.202-9.323-3.039-20.903-10.485-28.343-12.271-2.595-.623-4.606-.525-5.728.717-9.721 10.766-4.127 52.72 4.376 67.221 4.917 8.386 17.488 17.216 28.608 22.155 10.168-8.255 19.496-18.4 22.736-25.646 5.039-11.269 8.55-40.381 3.761-50.423-.447-.938-1.196-1.56-2.187-1.955m-7.273 19.493c4.72 1.576 7.651 10.151 4.35 8.771-6.026-2.52-7.14-5.603-12.76-2.692-5.397 2.795-1.6-8.364 7.934-6.212q.241.054.476.133m-29.738-3.31c8.55 2.5 10.774 11.465 5.617 8.19-6.892-4.38-8.511-1.05-17.469.829-5.701 1.195.08-9.808 7.556-9.662 1.58.031 3.012.268 4.296.643m31.275 28.955c-1.872-.045-7.608 6.08-11.074 6.246-1.249.06-3.791-.412-6.87-1.028-3.212.899-6.021 1.646-7.445 1.715-4.164.2-11.494-6.426-14.225-6.291-.64.031-1.007.445-.998 1.413.047 5.123 17.26 13.064 22.01 12.641q.213-.018.455-.059.24-.003.455-.022c4.491-.399 18.118-9.317 18.312-13.49.037-.788-.193-1.114-.62-1.125" style="font-variation-settings:&quot;wght&quot;400;display:inline;fill:#fff;fill-opacity:1;fill-rule:evenodd;stroke-width:3.08126;stroke-dasharray:9.24375,3.08126;stroke-dashoffset:277.312" transform="rotate(-.461 -468.824 6042.505)"/></g></svg>